<?xml version="1.0" encoding="UTF-8"?>
<svg width="21px" height="21px" viewBox="0 0 21 21" version="1.1" xmlns="http://www.w3.org/2000/svg" xmlns:xlink="http://www.w3.org/1999/xlink">
    <title>instagram-icon</title>
    <g id="Page-1" stroke="none" stroke-width="1" fill="none" fill-rule="evenodd">
        <g id="home" transform="translate(-1172.000000, -108.000000)" fill="#FFFFFF" fill-rule="nonzero">
            <g id="instagram-icon" transform="translate(1161.000000, 95.000000)">
                <g transform="translate(11.000000, 13.000000)">
                    <path d="M15.204635,0 L5.79511658,0 C2.59969124,0 0,2.59981545 0,5.7952408 L0,15.2047592 C0,18.4003088 2.59969124,21 5.79511658,21 L15.204635,21 C18.4003088,21 21,18.4001845 21,15.2047592 L21,5.7952408 C21,2.59981545 18.4003088,0 15.204635,0 Z M19.25,15.2664351 C19.25,17.4630273 17.4629143,19.25 15.2663379,19.25 L5.7334104,19.25 C3.53695987,19.25 1.75,17.4630273 1.75,15.2664351 L1.75,5.73356488 C1.75,3.53709856 3.53695987,1.75 5.7334104,1.75 L15.2662121,1.75 C17.4627884,1.75 19.25,3.53709856 19.25,5.73356488 L19.25,15.2664351 L19.25,15.2664351 Z" id="Shape"></path>
                    <path d="M10.5,5 C7.46725432,5 5,7.46731096 5,10.5001263 C5,13.5328153 7.46725432,16 10.5,16 C13.5327457,16 16,13.5328153 16,10.5001263 C16,7.46731096 13.5327457,5 10.5,5 Z M10.5,14.1666667 C8.47828193,14.1666667 6.83333333,12.5219172 6.83333333,10.5001284 C6.83333333,8.47821114 8.47815356,6.83333333 10.5,6.83333333 C12.5218464,6.83333333 14.1666667,8.47821114 14.1666667,10.5001284 C14.1666667,12.5219172 12.5217181,14.1666667 10.5,14.1666667 Z" id="Shape"></path>
                    <path d="M15,4 C14.7372727,4 14.4791818,4.10636364 14.2936364,4.29272727 C14.1071818,4.47818182 14,4.73636364 14,5 C14,5.26281818 14.1072727,5.52090909 14.2936364,5.70727273 C14.4790909,5.89272727 14.7372727,6 15,6 C15.2636364,6 15.5209091,5.89272727 15.7072727,5.70727273 C15.8936364,5.52090909 16,5.26272727 16,5 C16,4.73636364 15.8936364,4.47818182 15.7072727,4.29272727 C15.5218182,4.10636364 15.2636364,4 15,4 Z" id="Path"></path>
                </g>
            </g>
        </g>
    </g>
</svg>