<?xml version="1.0" encoding="UTF-8"?>
<svg width="206px" height="28px" viewBox="0 0 206 28" version="1.1" xmlns="http://www.w3.org/2000/svg" xmlns:xlink="http://www.w3.org/1999/xlink">
    <title>obvious-research-logo</title>
    <g id="obvious-research-logo" stroke="none" stroke-width="1" fill="none" fill-rule="evenodd">
        <g id="Obvious-Research" transform="translate(39.507477, 6.546875)" fill="#FFFFFF" fill-rule="nonzero">
            <path d="M6.89453125,1.07421875 C7.88411458,1.07421875 8.79557292,1.25325521 9.62890625,1.61132812 C10.4622396,1.96940104 11.1914062,2.4609375 11.8164062,3.0859375 C12.4414062,3.7109375 12.9264323,4.43684896 13.2714844,5.26367188 C13.6165365,6.09049479 13.7890625,6.97265625 13.7890625,7.91015625 C13.7890625,8.84765625 13.6165365,9.72981771 13.2714844,10.5566406 C12.9264323,11.3834635 12.4414062,12.109375 11.8164062,12.734375 C11.1914062,13.359375 10.4622396,13.8509115 9.62890625,14.2089844 C8.79557292,14.5670573 7.88411458,14.7460938 6.89453125,14.7460938 C5.90494792,14.7460938 4.99348958,14.5670573 4.16015625,14.2089844 C3.32682292,13.8509115 2.59765625,13.359375 1.97265625,12.734375 C1.34765625,12.109375 0.862630208,11.3834635 0.517578125,10.5566406 C0.172526042,9.72981771 0,8.84765625 0,7.91015625 C0,6.97265625 0.172526042,6.09049479 0.517578125,5.26367188 C0.862630208,4.43684896 1.34765625,3.7109375 1.97265625,3.0859375 C2.59765625,2.4609375 3.32682292,1.96940104 4.16015625,1.61132812 C4.99348958,1.25325521 5.90494792,1.07421875 6.89453125,1.07421875 Z M6.89453125,2.79296875 C5.91796875,2.79296875 5.04557292,3.01432292 4.27734375,3.45703125 C3.50911458,3.89973958 2.90364583,4.50846354 2.4609375,5.28320312 C2.01822917,6.05794271 1.796875,6.93359375 1.796875,7.91015625 C1.796875,8.88671875 2.01822917,9.75911458 2.4609375,10.5273438 C2.90364583,11.2955729 3.50911458,11.9042969 4.27734375,12.3535156 C5.04557292,12.8027344 5.91796875,13.0273438 6.89453125,13.0273438 C7.87109375,13.0273438 8.74348958,12.8027344 9.51171875,12.3535156 C10.2799479,11.9042969 10.8854167,11.2955729 11.328125,10.5273438 C11.7708333,9.75911458 11.9921875,8.88671875 11.9921875,7.91015625 C11.9921875,6.93359375 11.7708333,6.05794271 11.328125,5.28320312 C10.8854167,4.50846354 10.2799479,3.89973958 9.51171875,3.45703125 C8.74348958,3.01432292 7.87109375,2.79296875 6.89453125,2.79296875 Z" id="O"></path>
            <path d="M21.2304688,4.4921875 C22.1289062,4.4921875 22.9329427,4.70377604 23.6425781,5.12695312 C24.3522135,5.55013021 24.9121094,6.15234375 25.3222656,6.93359375 C25.7324219,7.71484375 25.9375,8.64583333 25.9375,9.7265625 C25.9375,10.7161458 25.7324219,11.5885417 25.3222656,12.34375 C24.9121094,13.0989583 24.3652344,13.688151 23.6816406,14.1113281 C22.9980469,14.5345052 22.2330729,14.7460938 21.3867188,14.7460938 C20.6445312,14.7460938 19.983724,14.5507812 19.4042969,14.1601562 C18.8248698,13.7695312 18.3658854,13.3138021 18.0273438,12.7929688 L18.0273438,14.453125 L16.4257812,14.453125 L16.4257812,0.390625 L18.0273438,0.390625 L18.0273438,5.99609375 C18.4440104,5.52734375 18.9420573,5.15950521 19.5214844,4.89257812 C20.1009115,4.62565104 20.6705729,4.4921875 21.2304688,4.4921875 Z M20.9375,6.07421875 C20.3385417,6.07421875 19.8111979,6.21419271 19.3554688,6.49414062 C18.8997396,6.77408854 18.4635417,7.16796875 18.046875,7.67578125 L18.0273438,9.55078125 C18.0273438,10.2408854 18.1608073,10.859375 18.4277344,11.40625 C18.6946615,11.953125 19.0657552,12.3828125 19.5410156,12.6953125 C20.016276,13.0078125 20.546875,13.1640625 21.1328125,13.1640625 C21.7708333,13.1640625 22.3242188,13.0078125 22.7929688,12.6953125 C23.2617188,12.3828125 23.6263021,11.9661458 23.8867188,11.4453125 C24.1471354,10.9244792 24.2773438,10.3515625 24.2773438,9.7265625 C24.2773438,9.08854167 24.1438802,8.49283854 23.8769531,7.93945312 C23.610026,7.38606771 23.2291667,6.93684896 22.734375,6.59179688 C22.2395833,6.24674479 21.640625,6.07421875 20.9375,6.07421875 Z" id="b"></path>
            <polygon id="v" points="37.1875 4.6875 32.5976563 14.453125 31.6015625 14.453125 27.2070313 4.6875 29.1210938 4.6875 32.0703125 11.875 35.2734375 4.6875"></polygon>
            <path d="M40.703125,0 C41.0807292,0 41.3964844,0.133463542 41.6503906,0.400390625 C41.9042969,0.667317708 42.03125,0.9765625 42.03125,1.328125 C42.03125,1.66666667 41.9042969,1.97265625 41.6503906,2.24609375 C41.3964844,2.51953125 41.0807292,2.65625 40.703125,2.65625 C40.3255208,2.65625 40.0097656,2.51953125 39.7558594,2.24609375 C39.5019531,1.97265625 39.375,1.66666667 39.375,1.328125 C39.375,0.9765625 39.5019531,0.667317708 39.7558594,0.400390625 C40.0097656,0.133463542 40.3255208,0 40.703125,0 Z M41.6992188,4.6875 L41.6992188,14.453125 L40.0976563,14.453125 L40.0976563,6.19140625 L38.5546875,6.19140625 L38.5546875,4.6875 L41.6992188,4.6875 Z" id="i"></path>
            <path d="M49.5703125,4.4921875 C50.5598958,4.4921875 51.4388021,4.7265625 52.2070313,5.1953125 C52.9752604,5.6640625 53.577474,6.2890625 54.0136719,7.0703125 C54.4498698,7.8515625 54.6679688,8.70442708 54.6679688,9.62890625 C54.6679688,10.5533854 54.4498698,11.4029948 54.0136719,12.1777344 C53.577474,12.952474 52.9752604,13.5742188 52.2070313,14.0429688 C51.4388021,14.5117188 50.5598958,14.7460938 49.5703125,14.7460938 C48.5807292,14.7460938 47.7018229,14.5117188 46.9335938,14.0429688 C46.1653646,13.5742188 45.563151,12.952474 45.1269531,12.1777344 C44.6907552,11.4029948 44.4726563,10.5533854 44.4726563,9.62890625 C44.4726563,8.70442708 44.6907552,7.8515625 45.1269531,7.0703125 C45.563151,6.2890625 46.1653646,5.6640625 46.9335938,5.1953125 C47.7018229,4.7265625 48.5807292,4.4921875 49.5703125,4.4921875 Z M49.5703125,6.0546875 C48.8802083,6.0546875 48.2747396,6.22070312 47.7539063,6.55273438 C47.2330729,6.88476562 46.8326823,7.32096354 46.5527344,7.86132812 C46.2727865,8.40169271 46.1328125,8.99088542 46.1328125,9.62890625 C46.1328125,10.2539062 46.2727865,10.8365885 46.5527344,11.3769531 C46.8326823,11.9173177 47.2330729,12.3535156 47.7539063,12.6855469 C48.2747396,13.0175781 48.8802083,13.1835938 49.5703125,13.1835938 C50.2734375,13.1835938 50.8821615,13.0175781 51.3964844,12.6855469 C51.9108073,12.3535156 52.3079427,11.9173177 52.5878906,11.3769531 C52.8678385,10.8365885 53.0078125,10.2539062 53.0078125,9.62890625 C53.0078125,8.99088542 52.8678385,8.40169271 52.5878906,7.86132812 C52.3079427,7.32096354 51.9108073,6.88476562 51.3964844,6.55273438 C50.8821615,6.22070312 50.2734375,6.0546875 49.5703125,6.0546875 Z" id="o"></path>
            <path d="M65.2929688,4.6875 L65.2929688,10.46875 C65.2929688,11.328125 65.1106771,12.0703125 64.7460938,12.6953125 C64.3815104,13.3203125 63.8867188,13.8020833 63.2617188,14.140625 C62.6367188,14.4791667 61.9335938,14.6484375 61.1523438,14.6484375 C60.3710938,14.6484375 59.6679688,14.4791667 59.0429688,14.140625 C58.4179688,13.8020833 57.9231771,13.3203125 57.5585938,12.6953125 C57.1940104,12.0703125 57.0117188,11.328125 57.0117188,10.46875 L57.0117188,4.6875 L58.671875,4.6875 L58.671875,10.46875 C58.671875,11.3151042 58.922526,11.9628906 59.4238281,12.4121094 C59.9251302,12.8613281 60.5013021,13.0859375 61.1523438,13.0859375 C61.8033854,13.0859375 62.3795573,12.8613281 62.8808594,12.4121094 C63.3821615,11.9628906 63.6328125,11.3151042 63.6328125,10.46875 L63.6328125,4.6875 L65.2929688,4.6875 Z" id="u"></path>
            <path d="M71.2304688,4.4921875 C71.8033854,4.4921875 72.3372396,4.57356771 72.8320312,4.73632812 C73.3268229,4.89908854 73.6848958,5.06510417 73.90625,5.234375 L73.90625,6.953125 C73.6328125,6.74479167 73.2617188,6.54296875 72.7929688,6.34765625 C72.3242188,6.15234375 71.8424479,6.0546875 71.3476562,6.0546875 C70.7356771,6.0546875 70.2766927,6.19791667 69.9707031,6.484375 C69.6647135,6.77083333 69.5117188,7.0703125 69.5117188,7.3828125 C69.5117188,7.63020833 69.5996094,7.88085938 69.7753906,8.13476562 C69.9511719,8.38867188 70.2604167,8.59375 70.703125,8.75 L72.34375,9.3359375 C72.9817708,9.55729167 73.4570312,9.87630208 73.7695312,10.2929688 C74.0820312,10.7096354 74.2382812,11.1979167 74.2382812,11.7578125 C74.2382812,12.3046875 74.0852865,12.8059896 73.7792969,13.2617188 C73.4733073,13.7174479 73.0501302,14.078776 72.5097656,14.3457031 C71.969401,14.6126302 71.3476562,14.7460938 70.6445312,14.7460938 C70.2669271,14.7460938 69.8730469,14.6972656 69.4628906,14.5996094 C69.0527344,14.5019531 68.6848958,14.3847656 68.359375,14.2480469 C68.0338542,14.1113281 67.7929688,13.9908854 67.6367188,13.8867188 L67.6367188,12.1679688 C67.8190104,12.2981771 68.0761719,12.4446615 68.4082031,12.6074219 C68.7402344,12.7701823 69.0950521,12.906901 69.4726562,13.0175781 C69.8502604,13.1282552 70.2018229,13.1835938 70.5273438,13.1835938 C71.1393229,13.1835938 71.624349,13.046875 71.9824219,12.7734375 C72.3404948,12.5 72.5195312,12.1614583 72.5195312,11.7578125 C72.5195312,11.4453125 72.3990885,11.1979167 72.1582031,11.015625 C71.9173177,10.8333333 71.5690104,10.6575521 71.1132812,10.4882812 L69.6679688,9.9609375 C68.9127604,9.67447917 68.4114583,9.31315104 68.1640625,8.87695312 C67.9166667,8.44075521 67.7929688,7.94270833 67.7929688,7.3828125 C67.7929688,6.54947917 68.1054688,5.859375 68.7304688,5.3125 C69.3554688,4.765625 70.1888021,4.4921875 71.2304688,4.4921875 Z" id="s"></path>
            <path d="M88.046875,1.3671875 C88.8020833,1.3671875 89.5247396,1.50716146 90.2148438,1.78710938 C90.9049479,2.06705729 91.4746094,2.49674479 91.9238281,3.07617188 C92.3730469,3.65559896 92.5976562,4.39453125 92.5976562,5.29296875 C92.5976562,6.10026042 92.3665365,6.78385417 91.9042969,7.34375 C91.4420573,7.90364583 90.8561198,8.32356771 90.1464844,8.60351562 C89.436849,8.88346354 88.7044271,9.0234375 87.9492188,9.0234375 C87.7148438,9.0234375 87.4023438,9.01041667 87.0117188,8.984375 L93.1054688,14.453125 L90.4101562,14.453125 L84.7851562,8.984375 L84.7851562,14.453125 L83.0273438,14.453125 L83.0273438,1.3671875 L88.046875,1.3671875 Z M84.7851562,3.02734375 L84.7851562,7.2265625 C85.2148438,7.34375 85.6835938,7.43489583 86.1914062,7.5 C86.6992188,7.56510417 87.2005208,7.59765625 87.6953125,7.59765625 C88.6848958,7.59765625 89.4498698,7.38932292 89.9902344,6.97265625 C90.530599,6.55598958 90.8007812,5.99609375 90.8007812,5.29296875 C90.8007812,4.56380208 90.5045573,4.00390625 89.9121094,3.61328125 C89.3196615,3.22265625 88.6002604,3.02734375 87.7539062,3.02734375 L84.7851562,3.02734375 Z" id="R"></path>
            <path d="M98.3984375,4.4921875 C99.4010417,4.4921875 100.234375,4.70052083 100.898438,5.1171875 C101.5625,5.53385417 102.060547,6.10026042 102.392578,6.81640625 C102.724609,7.53255208 102.890625,8.33984375 102.890625,9.23828125 L102.890625,10.1953125 L95.390625,10.1953125 C95.46875,10.7421875 95.6575521,11.2434896 95.9570312,11.6992188 C96.2565104,12.1549479 96.6471354,12.516276 97.1289062,12.7832031 C97.6106771,13.0501302 98.1640625,13.1835938 98.7890625,13.1835938 C99.4921875,13.1835938 100.14974,13.0045573 100.761719,12.6464844 C101.373698,12.2884115 101.888021,11.8945312 102.304688,11.4648438 L102.285156,13.203125 C102.102865,13.4244792 101.832682,13.655599 101.474609,13.8964844 C101.116536,14.1373698 100.70638,14.3391927 100.244141,14.5019531 C99.781901,14.6647135 99.296875,14.7460938 98.7890625,14.7460938 C97.7994792,14.7460938 96.9205729,14.5117188 96.1523438,14.0429688 C95.3841146,13.5742188 94.781901,12.952474 94.3457031,12.1777344 C93.9095052,11.4029948 93.6914062,10.5533854 93.6914062,9.62890625 C93.6914062,8.70442708 93.8932292,7.8515625 94.296875,7.0703125 C94.7005208,6.2890625 95.2571615,5.6640625 95.9667969,5.1953125 C96.6764323,4.7265625 97.4869792,4.4921875 98.3984375,4.4921875 Z M98.3984375,6.0546875 C97.5911458,6.0546875 96.9270833,6.32486979 96.40625,6.86523438 C95.8854167,7.40559896 95.5598958,8.05989583 95.4296875,8.828125 L101.308594,8.828125 C101.24349,8.19010417 101.064453,7.66927083 100.771484,7.265625 C100.478516,6.86197917 100.123698,6.55924479 99.7070312,6.35742188 C99.2903646,6.15559896 98.8541667,6.0546875 98.3984375,6.0546875 Z" id="e"></path>
            <path d="M108.4375,4.4921875 C109.010417,4.4921875 109.544271,4.57356771 110.039062,4.73632812 C110.533854,4.89908854 110.891927,5.06510417 111.113281,5.234375 L111.113281,6.953125 C110.839844,6.74479167 110.46875,6.54296875 110,6.34765625 C109.53125,6.15234375 109.049479,6.0546875 108.554688,6.0546875 C107.942708,6.0546875 107.483724,6.19791667 107.177734,6.484375 C106.871745,6.77083333 106.71875,7.0703125 106.71875,7.3828125 C106.71875,7.63020833 106.806641,7.88085938 106.982422,8.13476562 C107.158203,8.38867188 107.467448,8.59375 107.910156,8.75 L109.550781,9.3359375 C110.188802,9.55729167 110.664062,9.87630208 110.976562,10.2929688 C111.289062,10.7096354 111.445312,11.1979167 111.445312,11.7578125 C111.445312,12.3046875 111.292318,12.8059896 110.986328,13.2617188 C110.680339,13.7174479 110.257161,14.078776 109.716797,14.3457031 C109.176432,14.6126302 108.554688,14.7460938 107.851562,14.7460938 C107.473958,14.7460938 107.080078,14.6972656 106.669922,14.5996094 C106.259766,14.5019531 105.891927,14.3847656 105.566406,14.2480469 C105.240885,14.1113281 105,13.9908854 104.84375,13.8867188 L104.84375,12.1679688 C105.026042,12.2981771 105.283203,12.4446615 105.615234,12.6074219 C105.947266,12.7701823 106.302083,12.906901 106.679688,13.0175781 C107.057292,13.1282552 107.408854,13.1835938 107.734375,13.1835938 C108.346354,13.1835938 108.83138,13.046875 109.189453,12.7734375 C109.547526,12.5 109.726562,12.1614583 109.726562,11.7578125 C109.726562,11.4453125 109.60612,11.1979167 109.365234,11.015625 C109.124349,10.8333333 108.776042,10.6575521 108.320312,10.4882812 L106.875,9.9609375 C106.119792,9.67447917 105.61849,9.31315104 105.371094,8.87695312 C105.123698,8.44075521 105,7.94270833 105,7.3828125 C105,6.54947917 105.3125,5.859375 105.9375,5.3125 C106.5625,4.765625 107.395833,4.4921875 108.4375,4.4921875 Z" id="s"></path>
            <path d="M117.910156,4.4921875 C118.91276,4.4921875 119.746094,4.70052083 120.410156,5.1171875 C121.074219,5.53385417 121.572266,6.10026042 121.904297,6.81640625 C122.236328,7.53255208 122.402344,8.33984375 122.402344,9.23828125 L122.402344,10.1953125 L114.902344,10.1953125 C114.980469,10.7421875 115.169271,11.2434896 115.46875,11.6992188 C115.768229,12.1549479 116.158854,12.516276 116.640625,12.7832031 C117.122396,13.0501302 117.675781,13.1835938 118.300781,13.1835938 C119.003906,13.1835938 119.661458,13.0045573 120.273438,12.6464844 C120.885417,12.2884115 121.39974,11.8945312 121.816406,11.4648438 L121.796875,13.203125 C121.614583,13.4244792 121.344401,13.655599 120.986328,13.8964844 C120.628255,14.1373698 120.218099,14.3391927 119.755859,14.5019531 C119.29362,14.6647135 118.808594,14.7460938 118.300781,14.7460938 C117.311198,14.7460938 116.432292,14.5117188 115.664062,14.0429688 C114.895833,13.5742188 114.29362,12.952474 113.857422,12.1777344 C113.421224,11.4029948 113.203125,10.5533854 113.203125,9.62890625 C113.203125,8.70442708 113.404948,7.8515625 113.808594,7.0703125 C114.21224,6.2890625 114.76888,5.6640625 115.478516,5.1953125 C116.188151,4.7265625 116.998698,4.4921875 117.910156,4.4921875 Z M117.910156,6.0546875 C117.102865,6.0546875 116.438802,6.32486979 115.917969,6.86523438 C115.397135,7.40559896 115.071615,8.05989583 114.941406,8.828125 L120.820312,8.828125 C120.755208,8.19010417 120.576172,7.66927083 120.283203,7.265625 C119.990234,6.86197917 119.635417,6.55924479 119.21875,6.35742188 C118.802083,6.15559896 118.365885,6.0546875 117.910156,6.0546875 Z" id="e"></path>
            <path d="M129.0625,4.4921875 C129.622396,4.4921875 130.192057,4.62565104 130.771484,4.89257812 C131.350911,5.15950521 131.848958,5.52734375 132.265625,5.99609375 L132.265625,4.6875 L133.867188,4.6875 L133.867188,14.453125 L132.265625,14.453125 L132.265625,12.7929688 C131.927083,13.3138021 131.468099,13.7695312 130.888672,14.1601562 C130.309245,14.5507812 129.648438,14.7460938 128.90625,14.7460938 C128.072917,14.7460938 127.311198,14.5345052 126.621094,14.1113281 C125.93099,13.688151 125.380859,13.0989583 124.970703,12.34375 C124.560547,11.5885417 124.355469,10.7161458 124.355469,9.7265625 C124.355469,8.64583333 124.560547,7.71484375 124.970703,6.93359375 C125.380859,6.15234375 125.94401,5.55013021 126.660156,5.12695312 C127.376302,4.70377604 128.177083,4.4921875 129.0625,4.4921875 Z M129.355469,6.0546875 C128.652344,6.0546875 128.053385,6.23046875 127.558594,6.58203125 C127.063802,6.93359375 126.682943,7.38606771 126.416016,7.93945312 C126.149089,8.49283854 126.015625,9.08854167 126.015625,9.7265625 C126.015625,10.3515625 126.145833,10.9277344 126.40625,11.4550781 C126.666667,11.9824219 127.034505,12.4023438 127.509766,12.7148438 C127.985026,13.0273438 128.535156,13.1835938 129.160156,13.1835938 C129.759115,13.1835938 130.292969,13.0273438 130.761719,12.7148438 C131.230469,12.4023438 131.601562,11.969401 131.875,11.4160156 C132.148438,10.8626302 132.278646,10.2408854 132.265625,9.55078125 L132.246094,7.67578125 C131.842448,7.16796875 131.409505,6.77083333 130.947266,6.484375 C130.485026,6.19791667 129.954427,6.0546875 129.355469,6.0546875 Z" id="a"></path>
            <path d="M138.789062,4.6875 L138.789062,6.640625 C139.166667,5.98958333 139.622396,5.46875 140.15625,5.078125 C140.690104,4.6875 141.236979,4.4921875 141.796875,4.4921875 C142.174479,4.4921875 142.513021,4.55729167 142.8125,4.6875 L142.8125,6.54296875 C142.395833,6.29557292 141.979167,6.171875 141.5625,6.171875 C140.898438,6.171875 140.361328,6.40625 139.951172,6.875 C139.541016,7.34375 139.153646,7.90364583 138.789062,8.5546875 L138.789062,14.453125 L137.1875,14.453125 L137.1875,4.6875 L138.789062,4.6875 Z" id="r"></path>
            <path d="M149.277344,4.4921875 C149.99349,4.4921875 150.611979,4.60611979 151.132812,4.83398438 C151.653646,5.06184896 152.011719,5.26692708 152.207031,5.44921875 L152.207031,7.0703125 C151.842448,6.796875 151.425781,6.55924479 150.957031,6.35742188 C150.488281,6.15559896 149.928385,6.0546875 149.277344,6.0546875 C148.58724,6.0546875 147.981771,6.22070312 147.460938,6.55273438 C146.940104,6.88476562 146.539714,7.32096354 146.259766,7.86132812 C145.979818,8.40169271 145.839844,8.99088542 145.839844,9.62890625 C145.839844,10.2539062 145.979818,10.8365885 146.259766,11.3769531 C146.539714,11.9173177 146.940104,12.3535156 147.460938,12.6855469 C147.981771,13.0175781 148.58724,13.1835938 149.277344,13.1835938 C149.928385,13.1835938 150.488281,13.0826823 150.957031,12.8808594 C151.425781,12.6790365 151.842448,12.4414062 152.207031,12.1679688 L152.207031,13.7890625 C152.011719,13.984375 151.653646,14.1927083 151.132812,14.4140625 C150.611979,14.6354167 149.99349,14.7460938 149.277344,14.7460938 C148.28776,14.7460938 147.408854,14.5117188 146.640625,14.0429688 C145.872396,13.5742188 145.270182,12.952474 144.833984,12.1777344 C144.397786,11.4029948 144.179688,10.5533854 144.179688,9.62890625 C144.179688,8.70442708 144.397786,7.8515625 144.833984,7.0703125 C145.270182,6.2890625 145.872396,5.6640625 146.640625,5.1953125 C147.408854,4.7265625 148.28776,4.4921875 149.277344,4.4921875 Z" id="c"></path>
            <path d="M159.628906,4.4921875 C160.292969,4.4921875 160.898438,4.63867188 161.445312,4.93164062 C161.992188,5.22460938 162.428385,5.66731771 162.753906,6.25976562 C163.079427,6.85221354 163.242188,7.59765625 163.242188,8.49609375 L163.242188,14.453125 L161.640625,14.453125 L161.621094,8.65234375 C161.621094,7.80598958 161.435547,7.16145833 161.064453,6.71875 C160.693359,6.27604167 160.123698,6.0546875 159.355469,6.0546875 C158.834635,6.0546875 158.317057,6.24674479 157.802734,6.63085938 C157.288411,7.01497396 156.835938,7.4609375 156.445312,7.96875 L156.445312,14.453125 L154.84375,14.453125 L154.84375,0.390625 L156.445312,0.390625 L156.445312,6.23046875 C156.653646,5.97005208 156.920573,5.70638021 157.246094,5.43945312 C157.571615,5.17252604 157.939453,4.94791667 158.349609,4.765625 C158.759766,4.58333333 159.186198,4.4921875 159.628906,4.4921875 Z" id="h"></path>
        </g>
        <g id="grid-(11)-2" transform="translate(1.000000, 1.000000)" fill-rule="nonzero" stroke="#FFFFFF">
            <rect id="Rectangle" x="1.43678161" y="2.93785311" width="22.1264368" height="22.6214689"></rect>
            <ellipse id="Oval" cx="12.5" cy="12.779661" rx="12.5" ry="12.779661"></ellipse>
            <ellipse id="Oval" cx="12.5" cy="9.84180791" rx="3.3045977" ry="3.37853107"></ellipse>
            <line x1="20.545977" y1="2.49717514" x2="12.5" y2="9.98870056" id="Path"></line>
            <line x1="12.5" y1="2.49717514" x2="4.45402299" y2="9.98870056" id="Path" transform="translate(8.477011, 6.242938) scale(-1, 1) translate(-8.477011, -6.242938) "></line>
            <line x1="20.0431034" y1="23.4293785" x2="12.5" y2="14.2485876" id="Path"></line>
            <line x1="12.5" y1="23.4293785" x2="4.95689655" y2="14.2485876" id="Path" transform="translate(8.728448, 18.838983) scale(-1, 1) translate(-8.728448, -18.838983) "></line>
            <line x1="12.5" y1="9.98870056" x2="12.5" y2="26" id="Path"></line>
            <line x1="12.5" y1="2.49717514" x2="12.5" y2="6.9039548" id="Path"></line>
            <line x1="15.3735632" y1="9.84180791" x2="23.9942529" y2="9.84180791" id="Path"></line>
            <line x1="1.00574713" y1="9.84180791" x2="9.62643678" y2="9.84180791" id="Path"></line>
        </g>
    </g>
</svg>