<?xml version="1.0" encoding="UTF-8"?>
<svg width="196.030915px" height="26.559322px" viewBox="0 0 196.030915 26.559322" version="1.1" xmlns="http://www.w3.org/2000/svg" xmlns:xlink="http://www.w3.org/1999/xlink">
    <title>obvious-research-logo</title>
    <g id="Page-1" stroke="none" stroke-width="1" fill="none" fill-rule="evenodd">
        <g id="obvious-research" transform="translate(-88.5, -70.5)">
            <g id="obvious-research-logo" transform="translate(89, 71)">
                <text id="OBVIOUS-research" font-family="Sen-Regular, Sen" font-size="20" font-weight="normal" fill="#FFFFFF">
                    <tspan x="37.5309148" y="20">obvious research</tspan>
                </text>
                <g id="grid-(11)-2" fill-rule="nonzero" stroke="#FFFFFF">
                    <rect id="Rectangle" x="1.43678161" y="2.93785311" width="22.1264368" height="22.6214689"></rect>
                    <ellipse id="Oval" cx="12.5" cy="12.779661" rx="12.5" ry="12.779661"></ellipse>
                    <ellipse id="Oval" cx="12.5" cy="9.84180791" rx="3.3045977" ry="3.37853107"></ellipse>
                    <line x1="20.545977" y1="2.49717514" x2="12.5" y2="9.98870056" id="Path"></line>
                    <line x1="12.5" y1="2.49717514" x2="4.45402299" y2="9.98870056" id="Path" transform="translate(8.477, 6.2429) scale(-1, 1) translate(-8.477, -6.2429)"></line>
                    <line x1="20.0431034" y1="23.4293785" x2="12.5" y2="14.2485876" id="Path"></line>
                    <line x1="12.5" y1="23.4293785" x2="4.95689655" y2="14.2485876" id="Path" transform="translate(8.7284, 18.839) scale(-1, 1) translate(-8.7284, -18.839)"></line>
                    <line x1="12.5" y1="9.98870056" x2="12.5" y2="26" id="Path"></line>
                    <line x1="12.5" y1="2.49717514" x2="12.5" y2="6.9039548" id="Path"></line>
                    <line x1="15.3735632" y1="9.84180791" x2="23.9942529" y2="9.84180791" id="Path"></line>
                    <line x1="1.00574713" y1="9.84180791" x2="9.62643678" y2="9.84180791" id="Path"></line>
                </g>
            </g>
        </g>
    </g>
</svg>