<?xml version="1.0" encoding="UTF-8"?>
<svg width="22px" height="18px" viewBox="0 0 22 18" version="1.1" xmlns="http://www.w3.org/2000/svg" xmlns:xlink="http://www.w3.org/1999/xlink">
    <title>twitter-icon</title>
    <g id="Page-1" stroke="none" stroke-width="1" fill="none" fill-rule="evenodd">
        <g id="home" transform="translate(-1262, -108)">
            <g id="twitter-icon" transform="translate(1251, 95)">
                <g transform="translate(11, 13)" fill="#FFFFFF" fill-rule="nonzero" id="Path">
                    <path d="M19.7477148,4.48105334 C19.7611213,4.67634102 19.7611213,4.87162869 19.7611213,5.06871625 C19.7611213,11.0740372 15.2208003,18 6.91862685,18 L6.91862685,17.9964002 C4.46613853,18 2.06459476,17.2926446 0,15.9589288 C0.356611822,16.0021261 0.715011172,16.0237247 1.07430429,16.0246247 C3.10672354,16.0264246 5.08104814,15.3397679 6.67999187,14.0753477 C4.74856795,14.0384501 3.05488523,12.7704301 2.46321349,10.919247 C3.13979281,11.0506387 3.8369287,11.0236404 4.50099533,10.8409519 C2.39528743,10.4125789 0.880357506,8.54969652 0.880357506,6.38623308 L0.880357506,6.32863672 C1.50777981,6.68051451 2.21027829,6.87580218 2.92886451,6.89740082 C0.945602275,5.56278506 0.334267723,2.90615275 1.53191144,0.829083862 C3.82352224,3.66840464 7.20463132,5.39449568 10.8342068,5.57718415 C10.4704449,3.99868379 10.9673776,2.3445882 12.1399959,1.23495824 C13.9579118,-0.485733145 16.8170628,-0.397538712 18.5259395,1.4320458 C19.5367865,1.23135847 20.5056267,0.857882044 21.3922405,0.328715446 C21.0552915,1.38074904 20.3501117,2.27439263 19.4080845,2.84225679 C20.3027422,2.73606349 21.1768434,2.49487871 22,2.12680195 C21.394028,3.04114423 20.6307536,3.83759396 19.7477148,4.48105334 Z"></path>
                </g>
                <rect id="Rectangle" x="0" y="0" width="45" height="45"></rect>
            </g>
        </g>
    </g>
</svg>