<?xml version="1.0" encoding="UTF-8"?>
<svg width="16px" height="18px" viewBox="0 0 16 18" version="1.1" xmlns="http://www.w3.org/2000/svg" xmlns:xlink="http://www.w3.org/1999/xlink">
    <title>github-icon</title>
    <g id="Page-1" stroke="none" stroke-width="1" fill="none" fill-rule="evenodd">
        <g id="home" transform="translate(-1311, -109)">
            <g id="github-icon" transform="translate(1296, 95)">
                <path d="M20.6548339,15.1808165 C21.5836569,14.9310757 22.5794482,14.8062053 23.5694163,14.8015109 C24.5593843,14.8062053 25.5561463,14.9310757 26.4869104,15.1808165 C28.7104562,13.723682 29.6868365,14.0259999 29.6868365,14.0259999 C30.3206102,15.5779608 29.9217113,16.7243276 29.8013622,17.007868 C30.548691,17.7965232 31,18.8020587 31,20.0319855 C31,24.3592619 28.2756468,25.3122204 25.6823187,25.5910664 C26.0996582,25.940328 26.481087,26.625707 26.481087,27.6772474 L26.4830434,31.9068609 C25.2998507,31.9683325 23.977175,32 22.5,32 C21.856324,32 21.2419837,31.9939871 20.6557368,31.9821155 L20.6577456,28.6715164 C17.4180266,29.3531399 16.7434895,27.3420689 16.7434895,27.3420689 C16.2665579,26.1700708 15.6001638,25.7722506 15.4716543,25.7044065 L15.4497372,25.6934038 C14.3928007,24.9939417 15.5302934,25.0089637 15.5302934,25.0089637 C16.6998145,25.0878292 17.3151476,26.1703525 17.3151476,26.1703525 C18.3536435,27.8922499 20.0395008,27.3946459 20.7043323,27.1064112 C20.8081819,26.3787828 21.1100251,25.8811789 21.4438967,25.6004551 C18.8573625,25.3140982 16.137862,24.3479954 16.137862,20.0319855 C16.137862,18.8011199 16.5930532,17.7965232 17.3374704,17.007868 C17.2171213,16.7233887 16.8182224,15.5770219 17.4510255,14.0259999 C17.4510255,14.0259999 18.4293469,13.723682 20.6548339,15.1808165 Z" fill="#FFFFFF" fill-rule="nonzero"></path>
                <rect id="Rectangle" x="0" y="0" width="45" height="45"></rect>
            </g>
        </g>
    </g>
</svg>