<?xml version="1.0" encoding="UTF-8"?>
<svg width="22px" height="20px" viewBox="0 0 22 20" version="1.1" xmlns="http://www.w3.org/2000/svg" xmlns:xlink="http://www.w3.org/1999/xlink">
    <title>hugging-face-icon</title>
    <g id="Page-1" stroke="none" stroke-width="1" fill="none" fill-rule="evenodd">
        <g id="home" transform="translate(-1217, -108)">
            <g id="hugging-face-icon" transform="translate(1206, 95)">
                <path d="M13.4069041,26.0600965 C13.2685938,25.2988646 13.6812552,25.0918476 14.2680337,25.461199 C14.8548122,25.8305504 15.9866493,27.7614161 16.4012018,28.5126351 C16.8157544,29.263729 18.1070706,28.7210289 17.0300912,27.9206215 C15.9529858,27.120214 16.3303446,25.8126523 16.844753,25.7322987 C17.3591613,25.651945 17.5847066,26.5269487 17.5847066,26.5269487 C17.5847066,26.5269487 18.189023,28.0333919 19.2274091,29.0635958 C20.2655557,30.0936745 20.319266,30.9204911 19.562531,32.022037 C18.5106416,33.5525112 15.5008612,32.9059271 14.3157047,32.6007835 C14.2854454,32.5931487 10.6173862,31.5631951 11.0817406,30.6883166 C11.3274715,30.2255947 12.0782807,30.6356236 12.763528,31.0099815 C13.3738836,31.3434116 13.932294,31.64843 14.0353018,31.2827083 C14.1347793,30.9300033 13.4589753,30.6701682 12.7201438,30.3860517 L12.422845,30.2707919 C11.6300671,29.9585002 10.8734697,29.6008166 11.0178178,29.0553352 C11.2055516,28.3462955 12.5346794,29.1384424 13.5426928,29.7393425 C14.1340102,30.0916719 14.614755,30.3781665 14.6900251,30.2575109 C14.8938972,29.9309646 14.7822025,29.703296 13.3460198,28.8401826 C13.23343,28.7725954 13.1234878,28.7070108 13.0168237,28.6434288 C11.7615539,27.8950885 10.946948,27.4095873 11.4752252,26.8384756 C12.0481348,26.2188012 14.6802034,28.5966184 14.6802034,28.5966184 C14.6802034,28.5966184 15.5207693,29.4642376 15.7594396,29.0653481 C15.8797204,28.8644639 15.317288,28.2967316 14.7115974,27.6854431 L14.4353105,27.4054679 C13.9314922,26.8907894 13.4650466,26.3798263 13.4069041,26.0600965 Z M30.5925551,26.0600965 C30.5239673,26.4379589 29.8848654,27.0829159 29.2878744,27.6855683 C28.6821838,28.2968568 28.1197388,28.8644639 28.2398935,29.0653481 C28.450485,29.4173094 29.1301809,28.7828448 29.2871946,28.6286876 L29.3197728,28.5961178 C29.3197728,28.5961178 31.9517026,26.2184258 32.5248645,26.8381001 C33.0530156,27.4090866 32.2384096,27.894713 30.9830264,28.6430533 L30.6539563,28.8398071 C29.2177736,29.7029205 29.1060663,29.9305892 29.3098124,30.2570102 C29.3852085,30.377791 29.8659534,30.0911713 30.4571447,29.7388418 C31.4652842,29.1380669 32.7944245,28.3457949 32.9821583,29.0549597 C33.1446761,29.6686263 32.1666698,30.0446112 31.2798198,30.3856762 C30.5409882,30.6697927 29.8651969,30.9296278 29.9645483,31.2823328 C30.06743,31.6479294 30.6257143,31.3429109 31.2359438,31.0094808 L31.4795935,30.8773436 C32.0908876,30.5506749 32.7010211,30.2793258 32.9177312,30.6879411 C33.3822117,31.5633203 29.7135221,32.5922725 29.6838932,32.5997822 C28.4987367,32.9059271 25.4889437,33.5525112 24.4374325,32.022037 C23.6806975,30.9204911 23.7344078,30.0936745 24.7726805,29.0635958 C25.8109532,28.0333919 26.4152569,26.5269487 26.4152569,26.5269487 C26.4152569,26.5269487 26.6408149,25.651945 27.1552232,25.7322987 C27.6696315,25.8126523 28.0469904,27.120214 26.970011,27.9206215 C25.8929055,28.7210289 27.1842217,29.263729 27.5987743,28.5126351 C28.013453,27.7614161 29.1445209,25.8305504 29.7312994,25.461199 C30.3180779,25.0918476 30.7309915,25.2988646 30.5925551,26.0600965 Z M21.9324657,13 C27.209816,13 31.4862135,17.2466028 31.4862135,22.4851101 L31.4862135,22.6077683 C31.4862135,22.6244148 31.4858353,22.6411864 31.485457,22.6578329 L31.4852049,22.6689722 C31.4852049,22.6821142 31.4848266,22.695131 31.4844484,22.7082729 L31.4840702,22.7195375 C31.4840702,22.7326794 31.4835658,22.7459465 31.4828093,22.7643453 C31.4828093,22.778113 31.482305,22.7918808 31.4816746,22.8055234 L31.4810442,22.8232963 L31.4758749,22.9479571 L31.4751184,22.9617249 L31.4718403,23.0239301 C31.4708317,23.0403263 31.4699491,23.0567224 31.4688144,23.0729934 C31.4627626,23.1724967 31.4551977,23.2716246 31.446246,23.3702518 C31.444733,23.3876493 31.4429679,23.4050467 31.4413289,23.422319 C31.4393116,23.4458493 31.4370421,23.4676274 31.4346466,23.4894055 L31.4335119,23.5004197 L31.4290991,23.5408469 L31.4177518,23.6414767 L31.4113217,23.6925426 L31.4033786,23.7523697 L31.4019918,23.7628833 C31.3963181,23.805313 31.3902663,23.8477428 31.3838362,23.8906731 L31.3750105,23.9481222 L31.3660588,24.0048204 C31.3611417,24.0348591 31.3576114,24.0563869 31.3533247,24.0779147 C31.350677,24.0918076 31.3484076,24.1055753 31.346012,24.1193431 L31.3421035,24.1426231 C31.3345387,24.1856787 31.3265956,24.2287342 31.3182743,24.2715394 C31.3103313,24.3128427 31.3020099,24.3537705 31.2936886,24.3946983 L31.2791894,24.4641629 L31.2654466,24.5274946 L31.2510734,24.5910766 C30.9821438,24.3316169 30.6260925,24.1901845 30.2332258,24.1901845 C29.8767963,24.1901845 29.5104064,24.3073356 29.1436383,24.5381333 C28.9001769,24.6915812 28.6312473,24.9635571 28.3542485,25.3052478 C28.0976747,24.9520422 27.7385975,24.7172393 27.3282056,24.6531567 C27.2499096,24.6408909 27.170605,24.6346328 27.0913004,24.6346328 C26.1535138,24.6346328 25.5891776,25.4422996 25.3757234,26.1687367 C25.2698158,26.4143034 24.7618376,27.5322455 23.9974117,28.2904735 C22.8378496,29.4407073 22.5442081,30.6272378 23.1114442,31.8978768 L23.0576078,31.90426 C22.9786814,31.9136472 22.8997551,31.9219078 22.8205765,31.9289169 L22.7731703,31.9331723 L22.7300507,31.936802 L22.6686496,31.9416833 L22.6010704,31.9465646 L22.5333652,31.9509453 L22.5184877,31.9519466 L22.4988192,31.953073 L22.4652818,31.9548253 L22.4427133,31.956202 C22.421784,31.9572033 22.4008546,31.9583298 22.3796731,31.9590808 L22.3064204,31.962335 L22.2398499,31.9645879 L22.1955956,31.9657143 L22.1617588,31.9658708 L22.1505849,31.966215 L22.0887582,31.9667938 L22.0680022,31.9673414 L21.8211997,31.9673786 L21.7096815,31.965464 L21.6975778,31.9650885 C21.6863566,31.9650885 21.6751354,31.964713 21.6639143,31.9642124 L21.6022609,31.9624601 L21.5364469,31.9599569 L21.4773152,31.9573285 L21.4619333,31.9567027 L21.4055754,31.953824 L21.387672,31.9528227 L21.3587995,31.9510704 L21.3223623,31.9489427 C21.276469,31.946064 21.2307018,31.9428098 21.1850606,31.9393053 L21.1371501,31.9355504 L21.0850788,31.9311698 C21.0530544,31.9284162 21.0296034,31.9261633 21.0060264,31.9239104 C20.966311,31.9202807 20.9268478,31.9162755 20.8856195,31.9118949 C21.4619333,30.6358739 21.1705614,29.4442118 20.0060821,28.2893471 C19.2400172,27.5331216 18.7320389,26.4151796 18.6266357,26.169738 C18.4133075,25.4431757 17.8486057,24.6355089 16.9110713,24.6355089 C16.8317793,24.6356341 16.7526133,24.641767 16.6742922,24.6540328 C16.263522,24.7181155 15.9044448,24.9529183 15.6482493,25.306124 C15.3713765,24.964308 15.1023208,24.6925825 14.8589855,24.5391346 C14.4920913,24.3082117 14.1260671,24.1910606 13.7692594,24.1910606 C13.3240692,24.1910606 12.9261592,24.3725447 12.6487822,24.7017193 L12.6417217,24.7101051 L12.6302484,24.661918 L12.6262264,24.6450212 C12.5725161,24.4166015 12.5279341,24.189058 12.4919381,23.9601377 L12.483995,23.9086964 C12.476178,23.8578808 12.4689032,23.8069401 12.4621831,23.7558743 L12.4592833,23.7337207 L12.4529918,23.6865348 L12.4444058,23.6170702 L12.4219792,23.4100845 L12.4097336,23.2747536 C12.408725,23.2646156 12.4079811,23.254102 12.4072246,23.2435884 L12.4026731,23.1860142 C12.4008828,23.1623587 12.399622,23.1435844 12.3982603,23.1210554 L12.3941123,23.0557211 C12.3925993,23.0320656 12.3913259,23.0084101 12.3900651,22.9848797 C12.3888169,22.9600978 12.3875435,22.9370681 12.3865348,22.9139132 L12.3840132,22.8518331 L12.3833828,22.8330589 L12.3813655,22.7758601 L12.3799786,22.7271723 L12.3790078,22.6801742 L12.3788439,22.6689722 L12.3784783,22.6528264 L12.3778353,22.6077683 L12.3770161,22.4851101 C12.3770161,17.2468531 16.655254,13 21.9324657,13 Z M24.2135984,22.8511202 L24.1741876,22.8700183 C23.5331903,23.1784403 22.6798834,23.5891344 21.7431781,23.5891344 C20.8063457,23.5891344 19.9530388,23.1784403 19.3121686,22.8698947 C18.5912056,22.5229354 18.1389987,22.3052984 18.1389987,22.9469694 C18.1389987,23.7690987 18.5435313,25.1190162 19.6538982,25.9032258 C20.2033789,26.0861918 20.8005815,26.3915893 21.8609737,26.3503803 C22.829087,26.3127575 23.143805,26.2505459 23.9326377,25.8298567 C24.9678699,25.037495 25.3481203,23.7437777 25.3481203,22.9468459 C25.3481203,22.316909 24.911932,22.5151539 24.2135984,22.8511202 Z M24.7436098,18.2188612 C24.5473187,18.2762843 24.3666648,18.3752708 24.2144883,18.5086939 C24.0623118,18.642117 23.9424268,18.806654 23.8636052,18.9904721 C23.7847837,19.1742901 23.7488054,19.372819 23.7583403,19.5717432 C23.7680023,19.7707291 23.822796,19.9650214 23.9190346,20.1409096 C24.014129,20.3146981 24.2251673,20.2326828 24.4479018,20.1460973 C24.6224534,20.0782865 24.8043787,20.0076348 24.9430792,20.0553123 C25.0933487,20.1069425 25.2050973,20.2640561 25.3113793,20.4136352 C25.455038,20.6157091 25.5887803,20.8038255 25.7939707,20.6978479 C26.0360291,20.5727251 26.2344815,20.3807797 26.3641557,20.1460973 C26.493957,19.911415 26.5492592,19.6447047 26.5230701,19.3795507 C26.5034918,19.1812812 26.438909,18.9897063 26.3338984,18.8186352 C26.2288877,18.6475518 26.086119,18.5012211 25.916017,18.390204 C25.7457878,18.2791869 25.5522936,18.2062378 25.3496459,18.1766061 C25.1468711,18.1469743 24.9399009,18.1614135 24.7436098,18.2188612 Z M18.6112924,18.2191083 C18.2816149,18.122098 17.9265619,18.1478266 17.6153438,18.291304 C17.3041385,18.4347813 17.059067,18.6857062 16.9279181,18.9951781 C16.7967692,19.30465 16.7889252,19.6504853 16.9059244,19.9652684 C17.0229362,20.2799898 17.2563879,20.5412283 17.5608044,20.6978479 C17.7658676,20.8038255 17.8997371,20.6158326 18.0433958,20.4136352 C18.1496777,20.2641796 18.2614264,20.1069425 18.4116959,20.0553123 C18.5505235,20.0076348 18.7321945,20.0782865 18.9068732,20.1462209 C19.1296077,20.2326828 19.3406461,20.3146981 19.4358676,20.1409096 C19.5645248,19.9057332 19.6185557,19.6387512 19.5910952,19.3737454 C19.5635077,19.1087396 19.4558273,18.8576172 19.2814028,18.6520972 C19.1069783,18.4465896 18.873819,18.2959112 18.6112924,18.2191083 Z" id="huggingface-icon" fill="#FFFFFF"></path>
                <rect id="Rectangle" x="0" y="0" width="45" height="45"></rect>
            </g>
        </g>
    </g>
</svg>