<?xml version="1.0" encoding="UTF-8"?>
<svg width="543px" height="543px" viewBox="0 0 543 543" version="1.1" xmlns="http://www.w3.org/2000/svg" xmlns:xlink="http://www.w3.org/1999/xlink">
    <title>obvious-logo</title>
    <g id="abstract" stroke="none" stroke-width="1" fill="none" fill-rule="evenodd">
        <g id="obvious-logo" transform="translate(0.500000, 0.852679)" fill="#FFFFFF">
            <path d="M510.483435,144.871951 C509.34169,142.565341 508.671987,139.771012 508.654287,137.198088 C508.512676,115.357085 508.571679,93.5131108 508.571679,71.6721076 L508.571679,65.9564101 L502.969177,65.9564101 C486.734018,65.9564101 470.501807,65.8062592 454.272548,66.0512975 C449.681979,66.1213272 446.242002,64.7752982 442.713518,61.8752045 C397.822695,24.9610883 346.320389,4.1382896 288.401318,0.57315421 C221.191648,-3.56480037 160.24593,14.6838943 106.825672,55.9428213 C97.2385822,63.3480121 88.166599,66.8998668 76.2440983,66.160951 C62.1505122,65.2878299 47.9648866,65.9564101 33.1532159,65.9564101 L33.1532159,71.8825462 C33.1532159,93.7250347 33.2172342,115.567523 33.0685415,137.408832 C33.0514304,139.975247 32.3050194,142.751227 31.1594462,145.065221 C-10.2483255,228.821897 -10.4276994,312.572064 30.8706164,396.427734 C32.2117938,399.146965 33.0487748,402.424817 33.0588086,405.451427 C33.1962901,448.973846 33.1532159,492.496265 33.1532159,536.021655 L33.1532159,541.714286 L508.571679,541.714286 L508.571679,535.820653 C508.571679,492.135676 508.542175,448.450699 508.651335,404.768649 C508.660187,402.197209 509.365294,399.410002 510.509986,397.1016 C552.120143,313.0036 552.120143,228.962306 510.483435,144.871951 Z M46.5313645,529.025546 L46.5313645,422.807167 C81.8569223,473.5592 127.991271,508.592912 185.201402,529.025546 L46.5313645,529.025546 Z M263.949153,528.978277 C218.960678,527.606822 177.431067,515.556519 138.519787,492.425318 C180.279225,436.370819 221.785534,380.659173 263.949153,324.063746 L263.949153,528.978277 Z M495.171697,528.933935 L356.365949,528.933935 C413.724476,508.560409 459.807195,473.588776 495.171697,422.798342 L495.171697,528.933935 Z M277.756857,528.730006 L277.756857,324.125825 C319.768247,380.724179 361.195489,436.539275 402.622731,492.354415 C375.628056,512.089503 312.72013,530.417664 277.756857,528.730006 Z M333.687469,209.761286 C333.728773,210.67106 333.746477,211.586121 333.746477,212.505943 C333.746477,245.178655 309.103139,272.129465 277.432331,275.702857 C277.447083,286.118713 277.464787,295.00641 277.488387,299.280361 C277.500187,301.275442 278.633079,303.54837 279.872179,305.224233 C323.568153,364.2226 367.340836,423.164829 411.107618,482.107059 C411.936632,483.227271 412.851206,484.282435 413.839535,485.511995 C414.848516,484.873558 415.662783,484.403621 416.429846,483.868635 C448.501883,461.703957 474.328265,433.728433 493.864742,399.968623 C495.050738,397.917404 495.487375,395.156758 495.493275,392.727213 C495.578831,333.421424 495.563867,274.112708 495.563867,214.805739 L495.563867,209.549668 L333.687469,209.761286 Z M206.840219,209.766616 L46.396242,209.721968 C46.3089163,211.332826 46.1823495,212.581608 46.1823495,213.83157 C46.1747913,273.781694 46.1528499,333.734744 46.2522719,393.687795 C46.2572866,395.934118 46.9101756,398.517397 48.1306903,400.364686 C55.2384033,411.114526 62.1086198,422.077119 69.9857549,432.247631 C86.0866809,453.037926 105.416936,470.48235 127.516578,485.387838 C128.383356,484.329704 128.908204,483.732682 129.380245,483.100143 C173.723501,423.578629 218.077967,364.06594 262.335079,304.476449 C263.542316,302.850826 264.246835,300.438974 264.256567,298.387712 C264.274272,294.311836 264.293153,285.831997 264.310561,275.829942 C232.061213,272.818141 206.782096,245.596299 206.782096,212.505943 C206.782096,211.589659 206.801571,210.677832 206.840219,209.766616 Z M32.8803199,368.209836 C19.827578,335.815539 13.3110947,303.421242 13.3161022,271.026989 C13.3214207,238.634484 19.8476412,206.239881 32.8803199,173.843837 L32.8803199,368.209836 Z M508.813598,368.186158 L508.813598,173.968257 C534.929106,238.646017 534.946806,303.421242 508.813598,368.186158 Z M222.923733,187.214176 C218.898431,194.756455 216.61642,203.366393 216.61642,212.505943 C216.61642,240.15871 237.50617,262.962392 264.327079,265.927535 C264.355994,247.299073 264.379005,226.808205 264.383134,219.700084 L270.859203,224.772626 L277.37628,219.66461 L277.37628,219.633549 L270.859203,224.772626 L222.923733,187.214176 Z M317.950903,187.871223 L277.37628,219.66461 C277.38218,226.887977 277.396932,247.160411 277.417579,265.779176 C303.651099,262.271357 323.913331,239.740498 323.913331,212.505943 C323.913331,203.630304 321.759657,195.254221 317.950903,187.871223 Z M325.813286,181.71097 C328.297386,186.196539 330.256345,191.01487 331.604604,196.080903 L495.561131,196.2553 C495.561131,180.218067 495.667338,164.62683 495.460824,149.040618 C495.42542,146.34122 494.596401,143.3607 493.248142,141.018309 C481.995934,121.448138 468.206522,103.806294 452.222134,87.8851798 C451.245604,86.912191 450.151068,86.0550592 449.083079,85.1166265 L325.813286,181.71097 Z M215.079054,181.067248 L92.4603758,84.9898042 C77.8850201,99.0786573 65.6834225,114.472736 54.4922844,130.811451 C48.5092049,139.547861 45.2480089,148.364654 45.9820315,159.187189 C46.810457,171.362261 46.1737939,183.638075 46.1737939,196.080335 L208.962914,195.932238 C210.376962,190.676735 212.447439,185.689906 215.079054,181.067248 Z M319.077891,171.860857 L435.293667,79.0450577 L277.703753,79.0450577 L277.308424,149.293345 C294.051024,151.147449 308.843516,159.539216 319.077891,171.860857 Z M263.647346,149.247823 L264.112597,79.0255298 L106.384317,79.0255298 L221.925963,171.295727 C232.228194,159.180679 246.984105,150.980435 263.647346,149.247823 Z M495.283809,79.204077 L495.283809,118.154952 C484.482985,105.083429 473.829677,92.1919395 463.099661,79.204077 L495.283809,79.204077 Z M46.677698,79.0364951 L78.7432417,79.0364951 C67.9438963,92.1079738 57.3454619,104.938302 46.677698,117.853164 L46.677698,79.0364951 Z M240.402714,14.544665 C308.763861,7.43033983 370.361879,24.2233521 425.634588,64.6092016 C425.492977,65.0070122 425.351366,65.4045605 425.206803,65.8035943 L116.385626,65.8035943 C128.001008,48.0904978 200.600168,18.686464 240.402714,14.544665 Z M311.386623,178.002761 C301.541677,166.240658 286.769837,158.758055 270.266203,158.758055 C254.023963,158.758055 239.458933,166.003615 229.619298,177.439728 L270.859203,210.372244 L311.386623,178.002761 Z" id="Shape"></path>
        </g>
    </g>
</svg>